<?xml version="1.0" encoding="UTF-8"?>
<svg id="Ebene_1" xmlns="http://www.w3.org/2000/svg" version="1.1" viewBox="0 0 338.43 368.14">
  <!-- Generator: Adobe Illustrator 30.3.0, SVG Export Plug-In . SVG Version: 2.1.3 Build 182)  -->
  <path d="M152.56,65.15c20.14,20.5,34.7,46.3,40.73,75.66,7.01-6.14,13.9-10.84,22.57-10.53,9.08.32,18.66,5.47,22.64,13.92-22.68-11.92-35.91-5.65-54.38,8.03.58-2.33,1.96-3.82,4.05-5.79-5.48-24.26-16.2-47.77-34.35-66.41-1.81,21.75.99,41.62,5.08,61.75.52,2.54,4.51,4.42,6.29,5.85l22.95,18.31c-6.78,3.15-18.96-5.04-26.55-10.83-26.98-20.57-59.76-41.25-95.33-45.15,13.9,21.69,29.42,40.86,48.08,57.57,12.06,10.8,25.5,18.23,42.17,17.91-21.8,17.44-20.1,46.94-12.33,72.62-15.99-20.46-14.95-47.67.48-68.59-11.45-3.5-21.1-8.23-30.31-15.04-25.25-18.66-46.71-45.11-63.84-72.58,37.16-4.78,74.63,18.82,105.8,39.01-6.02-23-9.57-44.28-7.1-66.7l.93-9,2.41-.02Z" fill="#5cd4bd"/>
  <path d="M226.3,144.57c1.76-.39,4.45,1.2,4.88,2.6.64,2.07-.54,5.16-2.17,5.51-2.66.57-5.54-.36-5.86-2.29-.43-2.58.37-5.2,3.15-5.82Z" fill="#5cd4bd"/>
  <path d="M287.6,173.09l-.45-1.5c-25.57-16.46-58.08-20.73-76.93,6.69-8.95,13.03-8.97,24.12-23.88,33.05l-23.59,14.14c-2.56,1.54-5.21,5.64-5.63,8.05-1.02,5.75,6.24,10.77,5.37,12.61-1.51,3.19-4.08,3.45-4.96,6.09-.32.95,1.66,3.48,1.2,4.36l-2.14,4.06c-1.46,2.77,5.14,6.8,2.14,11.33-4.54,6.86-3.31,14.83,2.59,20.32,4.66,4.33,10.97,7.64,17.17,9.06,1.44.33,2.91.55,4.37.76,6.43.95,12.38,1.31,18.85.32,1.32-.2,2.67-.36,3.98-.63-1.68-.46-3.89-.21-5.67-.32-2.09-.13-4.18-.31-6.27-.54-8.64-.95-16.94-2.39-24.2-7.48-4.61-3.23-10.39-9.4-5.71-15,6.2-7.44-2.76-12.62,3.97-18.8l-1.8-3.79c-1.06-2.23,5.1-4.39,5.49-7.89.51-4.64-5.72-7.18-6.14-13.4l23.17-14.36c5.84-3.62,12.83-7.28,15.85-13.65l6.44-13.57c14.92-31.43,45.11-30.68,75.18-20.04l.59.62c.49-.22,1.95-.87,1.02-.45Z" fill="#27b9d3"/>
</svg>